<?xml version="1.0" encoding="utf-8"?>
<!-- Uploaded to: SVG Repo, www.svgrepo.com, Generator: SVG Repo Mixer Tools -->
<svg width="800px" height="800px" viewBox="-4.63 0 393.055 393.055" xmlns="http://www.w3.org/2000/svg"><defs><style>.a{fill:#ffffff;}.b{fill:#211715;}.c{fill:#d9d9d9;}.d{fill:#ffde7f;}.e{fill:#f2635f;}.f{fill:#645d5c;}</style></defs><path class="a" d="M359.762,391.123c0-2.76,0-52.673.012-57.382,0,0,0-.985.01-2.534h3.942c-.007-2.741,0-5.748.009-10.4,1.784,0-338.736,0-343.675-.017-.01,4.659-.015,7.668-.02,10.408l3.979,0c-.008,5-.013,57.005-.008,59.755Z"/><path class="a" d="M49.267,312.85c0-3.336.032-14.342.032-15.2,9.158,0,87.1.109,99.968.109v14.8Z"/><path class="a" d="M110.609,286.749c0,.824,0,8.1.006,10.97l-22.987-.028c.006-3.549.006-10.3.006-10.81"/><path class="a" d="M55.183,222.658c0,5.614-.047,53.242.01,63.755.737-.021,72.171,0,87.868,0,0-8.522-.333-54.189-.333-63.53C142.208,222.883,60.965,222.658,55.183,222.658Z"/><path class="b" d="M53.183,222.658q0,10.517-.013,21.034-.008,15.609,0,31.216c0,3.835,0,7.67.024,11.5a2.026,2.026,0,0,0,2,2c8.59-.2,17.207-.01,25.8-.009q22.527,0,45.053.007l17.017,0a2.029,2.029,0,0,0,2-2c0-7.5-.067-14.993-.112-22.49q-.091-15.191-.18-30.382c-.018-3.553-.04-7.1-.041-10.658a2.029,2.029,0,0,0-2-2c-9.448-.006-18.9-.051-28.344-.076q-23.08-.063-46.161-.122c-4.347-.01-8.694-.027-13.04-.027-2.574,0-2.579,4,0,4,10.7,0,21.4.048,32.1.076l45.1.121c3.446.01,6.892.026,10.338.028l-2-2c0,7.691.066,15.383.112,23.074q.09,15.111.179,30.22c.019,3.412.041,6.824.042,10.236l2-2q-18.246,0-36.492-.006-21.02,0-42.039,0c-3.11,0-6.228-.065-9.337.008l2,2c-.043-8.177-.028-16.354-.028-24.531q0-15.122.012-30.244,0-4.491.006-8.98C57.183,220.084,53.183,220.079,53.183,222.658Z"/><path class="c" d="M64.566,233.689c.019,7.706.108,32.727.148,41.483a1.988,1.988,0,0,0,2,1.984c9.836-.048,52.991-.181,65.5-.2a1.989,1.989,0,0,0,1.99-2c-.025-8.7-.172-33.212-.2-41.149a1.988,1.988,0,0,0-1.989-1.985c-10.027-.021-55.032-.118-65.453-.135A1.992,1.992,0,0,0,64.566,233.689Z"/><path class="b" d="M361.762,391.123q-.015-9.633,0-19.266,0-14.715.006-29.428,0-4.344.007-8.688c.007-2.574-3.993-2.578-4,0q-.025,10.329-.01,20.658,0,14.52,0,29.039,0,3.843,0,7.685c0,2.574,4,2.578,4,0Z"/><path class="b" d="M18.06,320.786q-.012,5.2-.02,10.408a2.03,2.03,0,0,0,2,2c3.39.009,6.781,0,10.172,0q12.666,0,25.333,0l37.114,0,44.677,0H349.1q6.929,0,13.857,0h.765a2.03,2.03,0,0,0,2-2c-.008-3.468,0-6.935.009-10.4l-2,2h.007c2.574-.01,2.578-3.994,0-4-3.033-.007-6.066,0-9.1,0H199.766l-49.665,0-46.338,0-39.451,0-28.909,0q-7.222,0-14.445,0h-.9c-2.574-.006-2.578,3.994,0,4,3.463.008,6.926,0,10.389,0l25.763,0,37.222,0,45.012,0,49.243,0H349.958c4.378,0,8.852.269,13.224,0,.185-.011.374,0,.56,0v-4h-.007a2.03,2.03,0,0,0-2,2c-.008,3.468-.017,6.935-.009,10.4l2-2q-4.915.007-9.831,0H149.038l-46.174,0-39.227,0-28.562,0q-7.091,0-14.18,0H20.04l2,2q.011-5.2.02-10.408C22.065,318.212,18.065,318.208,18.06,320.786Z"/><path class="b" d="M51.267,312.85c0-5.067.03-10.134.032-15.2l-2,2q17.146,0,34.291.037,24.575.03,49.151.058,8.263.009,16.526.014l-2-2v14.8c0,2.574,4,2.578,4,0v-14.8a2.029,2.029,0,0,0-2-2q-18.471,0-36.943-.037l-48.41-.059q-7.308-.007-14.615-.013a2.03,2.03,0,0,0-2,2c0,5.067-.031,10.134-.032,15.2,0,2.574,4,2.578,4,0Z"/><path class="b" d="M85.634,286.881v10.162a2,2,0,0,0,4,0V286.881a2,2,0,0,0-4,0Z"/><path class="b" d="M108.609,286.749v10.294a2,2,0,0,0,4,0V286.749a2,2,0,0,0-4,0Z"/><path class="b" d="M26.011,390.951q-.016-10.062,0-20.125,0-15.38.007-30.758,0-4.464.007-8.929c.006-2.574-3.994-2.578-4,0-.018,7.172-.009,14.344-.011,21.517q0,15.183,0,30.366,0,3.965,0,7.929c0,2.573,4,2.578,4,0Z"/><path class="a" d="M2.087,3.174c-.014,9.982-.179,62.66.029,76.335a1.047,1.047,0,0,0,1.055,1.038c19.765-.021,309.676,0,377.545,0a1.056,1.056,0,0,0,1.054-1.067c-.081-12.049-1.354-63.359-1.429-76.044a1.051,1.051,0,0,0-1.052-1.052c-20.9-.014-344.65-.257-376.142-.263A1.054,1.054,0,0,0,2.087,3.174Z"/><path class="c" d="M.087,3.174C.062,20.906,0,38.638.013,56.37q0,7.033.03,14.066.012,2.641.031,5.284c.012,1.445-.272,3.347.2,4.728,1,2.928,5.91,2.1,8.4,2.1q13.782,0,27.565,0h99.246l60.8,0,60.78,0,55.954,0,44.918,0h16.9c2.128,0,6.158.7,7.842-.743,1.409-1.2,1.09-3.191,1.068-4.856s-.049-3.313-.077-4.97c-.344-19.877-.861-39.751-1.2-59.629q-.047-2.682-.084-5.366c-.018-1.37.25-3.179-.192-4.49C381.455.331,379.4.386,377.568.385L369.5.379,340.044.357,296.69.325,244.165.287,187.4.246,130.488.205,78.95.169,36.917.141,9.307.125C6.581.124.868-.848.159,2.643-.352,5.156,3.5,6.231,4.016,3.706c-.345,1.695-1.151.153-.565.417.088.039.265-.012.362,0a6.683,6.683,0,0,0,.788,0H6.374l4.393,0,12.114.007,35.74.022,47.224.033,54.184.038,56.418.041L271,4.306l47.957.036,36.732.027,21.308.015h1.3a2.2,2.2,0,0,0,.507,0c.053-.014.209.034.253,0,.4-.3-.865-.639-.715-.758-.386.306.04,3.639.047,4.182q.04,2.793.092,5.586.266,14.974.607,29.949c.2,9.6.416,19.2.581,28.8q.043,2.465.077,4.929a7.209,7.209,0,0,0,.02,1.852c.024.07-.043.344,0,.379l.768-.752h-.179c-.145-.1-.726,0-.911,0h-6.955l-38.283,0-50.766,0-58.639,0-60.479,0-57.762,0H56.95q-18.077,0-36.151,0l-11.555,0H4.05a2.044,2.044,0,0,0-.547,0c-.051.017-.186-.034-.226,0-.312.257,1.874-.119.836.763.071-.06-.025-.542-.009-.628a25.1,25.1,0,0,0-.04-4.393q-.019-2.808-.028-5.616-.025-7.143-.024-14.287-.006-15.57.032-31.14.021-10.036.043-20.072C4.091.6.091.6.087,3.174Z"/><path class="c" d="M149.75,32.147a34.034,34.034,0,0,0,.516,5.5c.36,2.578.808,5.143,1.287,7.7.988,5.277,2.073,10.558,3.479,15.741.388,1.428.72,3.4,1.637,4.6a2.066,2.066,0,0,0,2.737.718,2.014,2.014,0,0,0,.717-2.737,2.614,2.614,0,0,1-.226-.391c-.213-.411.117.334.015.038-.052-.149-.111-.294-.164-.442-.267-.752-.488-1.521-.7-2.29-.631-2.253-1.168-4.532-1.681-6.814-1.2-5.315-2.268-10.672-3.077-16.061a31.816,31.816,0,0,1-.537-5.563c.062-2.575-3.938-2.574-4,0Z"/><path class="c" d="M187.689,32.147a18.074,18.074,0,0,1-.095,2.041c-.084.919-.22,2-.309,2.612-.366,2.549-.807,5.088-1.282,7.619-.97,5.164-2.036,10.331-3.4,15.407-.252.939-.513,1.878-.826,2.8-.079.235-.478,1.11-.162.493a3.5,3.5,0,0,1-.3.552,2.013,2.013,0,0,0,.717,2.737,2.05,2.05,0,0,0,2.736-.718,12,12,0,0,0,1.432-3.86c.641-2.268,1.183-4.565,1.7-6.864,1.226-5.434,2.324-10.912,3.141-16.423a37.964,37.964,0,0,0,.645-6.4c-.062-2.57-4.063-2.58-4,0Z"/><path class="c" d="M181.891,62.885c-.181.136-.353.095.188-.044-.12.03-.232.09-.355.113-.288.054-.573.121-.862.172-.305.054.334-.028-.251.033-.177.018-.354.038-.531.055-.535.051-1.071.088-1.607.12-2.447.144-4.9.163-7.352.144-2.528-.02-5.058-.089-7.582-.237-1.027-.06-2.054-.131-3.076-.239-.192-.02-.383-.042-.575-.065-.121-.015.367.07-.112-.017-.284-.052-.568-.1-.848-.169-2.493-.651-3.556,3.206-1.063,3.857a28.539,28.539,0,0,0,5.442.619c2.692.164,5.391.236,8.088.253,2.569.016,5.147-.005,7.711-.187,1.445-.1,3.579-.035,4.8-.954a2.063,2.063,0,0,0,.718-2.736,2.015,2.015,0,0,0-2.737-.718Z"/><path class="c" d="M181.857,37.917c2.573,0,2.578-4,0-4s-2.578,4,0,4Z"/><path class="c" d="M158.5,38.144c3.689,2.2,8.661,2.9,12.877,2.743a28.345,28.345,0,0,0,7.089-1.148,12.092,12.092,0,0,0,4.8-2.408c1.894-1.752-.94-4.575-2.829-2.829-.153.142-.024.069-.4.287a9.733,9.733,0,0,1-.905.474,15.415,15.415,0,0,1-2.244.766,23.968,23.968,0,0,1-5.934.869c-3.411.067-7.451-.429-10.442-2.208-2.218-1.319-4.232,2.138-2.019,3.454Z"/><path class="c" d="M23.572,33.509c-.537-.739.187-2.191.673-3a8.7,8.7,0,0,1,3.716-2.8,26.162,26.162,0,0,1,10.848-2.485c7.608-.338,15.475-.72,22.518,2.738A8.453,8.453,0,0,1,64.7,30.49a4.594,4.594,0,0,1,.371,3.98c-.68,2.486,3.178,3.547,3.857,1.063a8.613,8.613,0,0,0-3.433-9.756C61.959,23.213,57.146,21.986,52.9,21.4A77.721,77.721,0,0,0,39,21.213,30.514,30.514,0,0,0,25.37,24.555a10.932,10.932,0,0,0-4.951,4.62c-.917,1.878-1.655,4.487-.3,6.353a2.058,2.058,0,0,0,2.736.718,2.016,2.016,0,0,0,.718-2.737Z"/><path class="c" d="M20.2,35.79c1.149,1.738,3.221,2.564,5.123,3.2a46.385,46.385,0,0,0,8.248,1.75,93.493,93.493,0,0,0,20.268.731,29.239,29.239,0,0,0,8.628-1.636,2.065,2.065,0,0,0,1.4-2.46,2.014,2.014,0,0,0-2.461-1.4,23.382,23.382,0,0,1-6.409,1.388,77.421,77.421,0,0,1-9.2.323A74.448,74.448,0,0,1,27.978,35.6c-.6-.159-1.194-.334-1.781-.535-.264-.09-.526-.186-.787-.286-.054-.021-.4-.165-.165-.064s-.172-.079-.217-.1c-.394-.2-.766-.411-1.142-.639-.288-.174.063.055.1.09a3.1,3.1,0,0,0-.26-.228,1.993,1.993,0,0,1-.15-.155c-.261-.224.265.381.071.089-1.413-2.138-4.878-.137-3.453,2.019Z"/><path class="c" d="M18.239,38.144c-2.765,1.535-4.523,4.7-2.933,7.735,1.539,2.941,5.478,3.282,8.409,3.679a108.611,108.611,0,0,0,11.1.7c3.531.114,7.067.225,10.6.157,2.571-.05,2.579-4.05,0-4-5.7.109-11.46-.055-17.146-.41a48.5,48.5,0,0,1-4.828-.5,18.709,18.709,0,0,1-4.063-.952,1.323,1.323,0,0,1-.683-1.021c-.058-.856.751-1.484,1.561-1.934,2.251-1.249.236-4.7-2.019-3.454Z"/><path class="c" d="M21.765,50.91c-2.483,1.363-2.657,4.951-1.463,7.237,1.289,2.466,4.391,2.7,6.857,2.927,3.592.329,7.228.225,10.83.2,8.117-.046,16.233-.164,24.349-.222,2.173-.016,4.377-.249,5.874-2.029a5.431,5.431,0,0,0-.322-7.207c-1.761-1.886-4.585.947-2.829,2.828a1.3,1.3,0,0,1-.379,2.165,7.362,7.362,0,0,1-2.938.248q-4.669.038-9.341.093c-6.856.069-13.718.2-20.575.13a35.542,35.542,0,0,1-6.463-.452,10.9,10.9,0,0,1-1.289-.331c-.323-.142-.168-.1-.072,0-.2-.208-.121-.1-.246-.389a2.568,2.568,0,0,1-.149-1.409c.047-.213.111,3.343.083-.26q-.084.117.115-.2-.448.387-.023.115c2.258-1.238.242-4.694-2.019-3.454Z"/><path class="c" d="M87.644,27.161c8,.017,16-.083,24-.058,2.575.009,2.578-3.991,0-4-8-.025-16,.075-24,.058-2.574-.005-2.578,3.995,0,4Z"/><path class="c" d="M87.644,39.989c4.186,0,8.372-.068,12.558-.069a2,2,0,0,0,0-4c-4.186,0-8.372.068-12.558.069a2,2,0,0,0,0,4Z"/><path class="c" d="M87.644,52.736c5.994,0,11.989.079,17.984.082,2.574,0,2.578-4,0-4-6,0-11.99-.079-17.984-.082-2.574,0-2.578,4,0,4Z"/><path class="c" d="M334.894,27.161c8,.017,16-.083,24-.058,2.574.009,2.578-3.991,0-4-8-.025-16,.075-24,.058-2.574-.005-2.578,3.995,0,4Z"/><path class="c" d="M334.894,39.989c6.193,0,12.385-.068,18.577-.069,2.574,0,2.578-4,0-4-6.192,0-12.384.068-18.577.069-2.573,0-2.578,4,0,4Z"/><path class="c" d="M334.894,52.736c3.989,0,7.977.08,11.966.082a2,2,0,0,0,0-4c-3.989,0-7.977-.08-11.966-.082a2,2,0,0,0,0,4Z"/><path class="c" d="M126.562,2.09V79.469c0,2.574,4,2.578,4,0V2.09c0-2.574-4-2.578-4,0Z"/><path class="c" d="M253.011,2.09V79.469c0,2.574,4,2.578,4,0V2.09c0-2.574-4-2.578-4,0Z"/><path class="c" d="M211.339,27.161c8,.017,16-.083,24-.058,2.574.009,2.578-3.991,0-4-8-.025-16,.075-24,.058-2.574-.005-2.577,3.995,0,4Z"/><path class="c" d="M211.339,39.989c4.186,0,8.372-.068,12.559-.069a2,2,0,0,0,0-4c-4.187,0-8.373.068-12.559.069a2,2,0,0,0,0,4Z"/><path class="d" d="M49.876,45.44c.824,2.141,1.632,4.291,2.531,6.4a1.939,1.939,0,0,0,1.727.99A65.8,65.8,0,0,0,65.187,51.07c3.343-.74,6.694-1.547,9.956-2.6a2.065,2.065,0,0,0,1.4-2.46,12.828,12.828,0,0,0-2.209-4.6,17.725,17.725,0,0,0-3.006-3.766c-1.946-1.665-4.789,1.152-2.828,2.828a13.843,13.843,0,0,1,2.38,2.957,10.244,10.244,0,0,1,1.806,3.649l1.4-2.46c-3.161,1.017-6.406,1.8-9.645,2.528a60.557,60.557,0,0,1-10.3,1.689l1.727.991c.163.382-.121-.3-.119-.3-.084-.208-.167-.415-.25-.623-.209-.525-.414-1.05-.619-1.576q-.574-1.475-1.14-2.953a2.058,2.058,0,0,0-2.46-1.4,2.015,2.015,0,0,0-1.4,2.461Z"/><path class="c" d="M306.373,64.219c1.7-10.832,2.848-21.789,4.048-32.684.2-1.793.452-3.6.524-5.405.1-2.575-3.9-2.57-4,0-.168,4.2-.857,8.422-1.348,12.59q-1.095,9.291-2.284,18.57-.135,1.042-.271,2.084c-.041.311-.083.621-.124.932-.08.605.014-.094-.064.479-.108.791-.215,1.582-.338,2.37a2.064,2.064,0,0,0,1.4,2.461,2.016,2.016,0,0,0,2.46-1.4Z"/><path class="c" d="M284.324,62.6c-.3-1.931-.42-2.977-.65-4.731q-.555-4.225-1.084-8.455c-.757-6.007-1.5-12.017-2.179-18.035-.195-1.74-.446-3.5-.516-5.246-.1-2.566-4.1-2.579-4,0,.17,4.224.881,8.477,1.386,12.67q1.11,9.221,2.31,18.43c.28,2.144.547,4.292.876,6.43a2.015,2.015,0,0,0,2.46,1.4,2.05,2.05,0,0,0,1.4-2.46Z"/><path class="c" d="M282.391,65.984c3.689.162,7.395.123,11.087.095a91.819,91.819,0,0,0,10.966-.392,2.064,2.064,0,0,0,2-2,2.012,2.012,0,0,0-2-2,91.812,91.812,0,0,1-10.966.392c-3.692.028-7.4.067-11.087-.095-2.574-.113-2.569,3.887,0,4Z"/><path class="c" d="M279.75,39.7c8.543-.152,17.089-.49,25.634-.5,2.574,0,2.578-4,0-4-8.545.009-17.091.347-25.634.5-2.571.045-2.579,4.046,0,4Z"/><path class="c" d="M281.174,52.409c7.7-.138,15.394-.49,23.092-.5,2.574,0,2.578-4,0-4-7.7.009-15.4.361-23.092.5-2.571.046-2.579,4.046,0,4Z"/><path class="c" d="M277.955,27.877c8.8-.2,17.6-.188,26.4-.238,1.42-.008,2.84-.019,4.261-.019,2.574,0,2.578-4,0-4-8.419,0-16.839.091-25.258.181-1.8.019-3.6.035-5.4.076-2.57.058-2.579,4.058,0,4Z"/><path class="c" d="M279.884,25.861c.316-1.411.522-2.844.873-4.247a10.637,10.637,0,0,1,.548-1.734c.38-.848.145.407-.914.144A1.459,1.459,0,0,0,280.7,20c1.713,0,3.443-.147,5.158-.183q7.878-.162,15.762-.1c1.036.01,2.073.022,3.109.054.364.011.727.029,1.09.046.11,0,.224.026.334.024.416-.009-.494-.087-.222-.03l-1.2-.92a35.543,35.543,0,0,1,2.229,6.654c.587,2.5,4.445,1.445,3.857-1.063a41.659,41.659,0,0,0-2.19-6.6c-.373-.887-.725-1.706-1.762-1.952a7.171,7.171,0,0,0-1.2-.124c-2.444-.138-4.9-.1-7.351-.107-5.773,0-11.613-.123-17.376.28a3.765,3.765,0,0,0-3.489,2.8,39.609,39.609,0,0,0-1.422,6.02c-.563,2.508,3.293,3.578,3.857,1.064Z"/><path class="d" d="M158.612,25.639c.492.613.151.2.044.031-.084-.131-.162-.266-.238-.4-.177-.32-.336-.651-.485-.985-.041-.092-.078-.186-.121-.277.085.179.171.413.042.094-.074-.183-.146-.366-.215-.551-.157-.415-.3-.835-.44-1.257a24.065,24.065,0,0,1-.657-2.419q-.059-.274-.106-.551c-.015-.086-.028-.173-.042-.259-.052-.325.055.545.029.207a5.851,5.851,0,0,1-.03-.8,2.01,2.01,0,0,0-2-2,2.047,2.047,0,0,0-2,2,9.22,9.22,0,0,0,.272,2.377,23.8,23.8,0,0,0,.712,2.62,15.633,15.633,0,0,0,2.406,5.006,2.007,2.007,0,0,0,2.829,0,2.06,2.06,0,0,0,0-2.829Z"/><path class="d" d="M160.827,22.507a62.585,62.585,0,0,0,2.31,7.434,2,2,0,0,0,1.195.919,2.043,2.043,0,0,0,1.541-.2,2.017,2.017,0,0,0,.919-1.2,2.328,2.328,0,0,0-.2-1.541c-.1-.238.2.5.125.3-.018-.048-.038-.1-.056-.144-.037-.1-.072-.193-.107-.291-.085-.239-.165-.48-.242-.722-.192-.6-.371-1.207-.546-1.814-.365-1.267-.711-2.539-1.081-3.8a2,2,0,0,0-3.857,1.063Z"/><path class="d" d="M177.438,19.951c-.877,3.158-1.478,6.394-2.465,9.522a2.018,2.018,0,0,0,1.4,2.46,2.043,2.043,0,0,0,2.46-1.4c.988-3.128,1.588-6.363,2.465-9.522a2,2,0,1,0-3.857-1.063Z"/><path class="d" d="M168.69,24.194a30.724,30.724,0,0,0,.418,3.049c.134.714.283,1.426.381,2.147l-.072-.532c.03.228.055.455.075.684a2.137,2.137,0,0,0,.586,1.414,2,2,0,0,0,2.828,0,1.96,1.96,0,0,0,.586-1.414c-.138-1.6-.534-3.148-.75-4.733l.071.531q-.075-.572-.123-1.146a2.145,2.145,0,0,0-.586-1.415,2,2,0,0,0-2.828,0,1.964,1.964,0,0,0-.586,1.415Z"/><path class="d" d="M183.147,23.888c-.415,1.227-.85,2.453-1.354,3.646l.2-.478c-.045.107-.092.214-.14.319a1.492,1.492,0,0,0-.237.744,1.512,1.512,0,0,0,.035.8,2.041,2.041,0,0,0,.919,1.2,2.016,2.016,0,0,0,1.542.2,1.952,1.952,0,0,0,1.195-.919A46.426,46.426,0,0,0,187,24.951a2,2,0,0,0-2.938-2.258,2.191,2.191,0,0,0-.919,1.2Z"/><path class="a" d="M271.274,150.964a4.63,4.63,0,0,1,3.7-1.083,4.373,4.373,0,0,1,3.141,2.089,6.182,6.182,0,0,1,.647,2.484,18.51,18.51,0,0,1-1.888,9.811,11.754,11.754,0,0,1-3.042,3.993,7.8,7.8,0,0,1-3.626,1.635l-.619.095c-.3,1.115-.634,2.053-.8,2.551-1.011,2.745-6.475,11.961-13.469,15.913l0,.17a57.66,57.66,0,0,0,.768,8.37c.438,2.5.3,4.727,3.771,5.98.229.083,4.078,1.861,4.6,2.09,0,0-7.643,15.433-26.31,15.433s-20.77-16.656-20.77-16.656c.425-.181,2.135-.784,2.364-.867,3.47-1.253,3.333-3.484,3.771-5.98a67.261,67.261,0,0,0,.768-9.046s0-.024,0-.064a28.9,28.9,0,0,1-6.848-6.1,31.448,31.448,0,0,1-6-11.71l-1.182-.18a7.807,7.807,0,0,1-3.627-1.635,11.754,11.754,0,0,1-3.042-3.993,18.5,18.5,0,0,1-1.887-9.811,6.165,6.165,0,0,1,.646-2.484,4.373,4.373,0,0,1,3.141-2.089,4.63,4.63,0,0,1,3.7,1.083s-.294-23.135,32.373-23.135C270.669,127.829,271.274,150.964,271.274,150.964Z"/><path class="b" d="M222.283,187.946a66.912,66.912,0,0,1-.961,10.2c-.052.307-.111.613-.19.914-.042.161-.1.316-.144.476-.1.358.093-.146-.018.053-.081.144-.166.289-.244.434-.1.18.2-.186-.05.072-.128.131-.251.264-.39.384.257-.223-.228.146-.246.157a23.176,23.176,0,0,1-3.191,1.277,2.065,2.065,0,0,0-1.4,2.46,2.013,2.013,0,0,0,2.46,1.4,28.8,28.8,0,0,0,4.146-1.68,6.6,6.6,0,0,0,3.026-4.376,62.55,62.55,0,0,0,1.2-11.766c.047-2.575-3.953-2.576-4,0Z"/><path class="b" d="M253.323,188.622a60.572,60.572,0,0,0,.71,8.113c.281,1.813.409,3.818,1.45,5.39a6.512,6.512,0,0,0,2.54,2.222c.343.17.7.317,1.053.457.787.312-.271-.153-.078-.044.216.123.465.209.692.311,1.255.57,2.5,1.159,3.76,1.717a2.062,2.062,0,0,0,2.736-.717,2.014,2.014,0,0,0-.717-2.736c-1.145-.509-2.279-1.043-3.419-1.562-.542-.247-1.085-.485-1.632-.72a6.055,6.055,0,0,1-1.06-.552c-.475-.326.164.2-.214-.184q-.132-.127-.252-.267.165.228.045.056c-.112-.166-.2-.339-.3-.515.163.3,0,.011-.05-.147a8.392,8.392,0,0,1-.266-1.086c-.157-.846-.276-1.7-.41-2.553a52.644,52.644,0,0,1-.588-7.183c-.049-2.57-4.049-2.579-4,0Z"/><path class="b" d="M272.688,152.379a2.546,2.546,0,0,1,3.627.477,5.29,5.29,0,0,1,.509,2.676,15.67,15.67,0,0,1-.222,3.23c-.7,3.84-2.66,8.437-6.926,9.2a2.018,2.018,0,0,0-1.4,2.46,2.044,2.044,0,0,0,2.46,1.4c6.461-1.158,9.542-8.456,10.028-14.312.249-3,.014-6.433-2.58-8.378a6.662,6.662,0,0,0-8.327.419,2.016,2.016,0,0,0,0,2.829,2.044,2.044,0,0,0,2.828,0Z"/><path class="b" d="M268.16,166.448a17.488,17.488,0,0,1-1.019,4.725c-.091.278-.2.554-.279.834-.037.125-.2.48.022-.031-.142.33-.3.656-.46.977a39.552,39.552,0,0,1-3.42,5.5c-2.986,4.1-7.04,8.435-12.156,9.636-2.506.587-1.445,4.445,1.063,3.857,6.082-1.427,10.8-6.4,14.38-11.246,3.091-4.186,5.653-8.929,5.869-14.249.1-2.574-3.9-2.569-4,0Z"/><path class="b" d="M210.6,149.55a6.665,6.665,0,0,0-8.327-.419c-2.6,1.939-2.828,5.384-2.58,8.378.486,5.856,3.568,13.154,10.028,14.312a2.055,2.055,0,0,0,2.46-1.4,2.017,2.017,0,0,0-1.4-2.46c-4.266-.765-6.225-5.362-6.926-9.2a15.577,15.577,0,0,1-.225-3.05,6.071,6.071,0,0,1,.437-2.733,2.532,2.532,0,0,1,3.7-.6,2.055,2.055,0,0,0,2.828,0,2.016,2.016,0,0,0,0-2.829Z"/><path class="b" d="M208.509,166.165a35.85,35.85,0,0,0,7.785,17.358c4.293,5.014,9.934,8.632,16.575,9.347a2.013,2.013,0,0,0,2-2,2.047,2.047,0,0,0-2-2c-5.695-.613-10.454-4.219-14.022-8.5-3.613-4.336-5.521-9.772-6.481-15.267a2.016,2.016,0,0,0-2.46-1.4,2.046,2.046,0,0,0-1.4,2.46Z"/><path class="a" d="M294.865,292.566a31.545,31.545,0,0,1-5.631-6.461,63.7,63.7,0,0,1-4.508-10.405c-.133,1.963-.257,3.933-.37,5.9,0,5.417,0,15.93,0,31.032H196.424c0-12.851,0-22.38,0-28.273a1.623,1.623,0,0,1-.181.015c-3.64,0-23.58-1.547-25.525-2.475-.884-.265-.389-2.6.089-4.354,1.59-5.819,4.893-21.16,5.744-24.633,1.321-5.392,4.793-20.936,5.962-25.418.712-2.729,2.233-6.916,4.387-9.468a17.28,17.28,0,0,1,2.281-1.566,33.783,33.783,0,0,1,4.733-2.671,259.029,259.029,0,0,1,23.707-11.706,25.834,25.834,0,0,1,5.724-8.217,50.07,50.07,0,0,0,14.449,10.07c.3.135.633.3.729.615a1.155,1.155,0,0,1-.167.816h2.926a1.161,1.161,0,0,1-.167-.816c.1-.314.43-.48.729-.615a50.07,50.07,0,0,0,14.449-10.07,25.058,25.058,0,0,1,5.249,7.224,250.62,250.62,0,0,1,26.084,12.7,43.993,43.993,0,0,1,3.981,2.119l1.06.577a16.664,16.664,0,0,1,2.246,1.541c2.154,2.552,3.675,6.739,4.386,9.468,1.169,4.482,3.017,12.317,4.921,20.412a63.811,63.811,0,0,1,2.624,7.545l4.938,3.49L300.891,292.5Z"/><path class="a" d="M175.312,312.653c-.164-3.6,1.462-25.363,1.823-29.745,6.617.716,16.28,1.4,19.292,1.46,0,5.877,0,15.408,0,28.263Z"/><path class="a" d="M333.088,218.119c2.5-.564,11.312-2.081,12.919-2.447,1.539-.35,2.609-1.226,4.01-1.885,2.709-1.272,5.734-3.2,8.67-3.783.8-.158,1.658.3,2.14.232,1.378-.888,4.225-.723,5.808-.293,5.654,2.612-.089,10.451-3.388,13-2.274,1.759-5.621,4.5-8.105,6.014a34.269,34.269,0,0,1-8.645,4.1,78.488,78.488,0,0,0-10.761,3.574c-1.891,1.315-4.062,2.622-5.218,6.4-2.186,11.342-4.252,33.115-6.388,40.331-2.106,7.112-2.876,12.586-9.444,16.7-3.577,2.242-6.835,3.233-10.726,1.173a12.037,12.037,0,0,1-6.216-13.208,55.426,55.426,0,0,1,4-12.395c3.509-7.233,13.448-34.9,16.721-42.2.946-2,2.288-4.029,2.825-5.3.695-1.64.228-4.4.719-6.1A22.237,22.237,0,0,1,326.942,213a97.163,97.163,0,0,1,8.3-8.678c1.325-1.255,2.657-2.1,4.313-.973,1.842,1.255,1.162,2.943.36,4.826-1.494,3.508-5.152,6.411-6.317,9.418"/><path class="b" d="M218.89,199.4q-8.109,3.372-15.939,7.343c-2.464,1.254-4.908,2.547-7.342,3.857-2.484,1.337-5.251,2.472-7.5,4.184a2.067,2.067,0,0,0-.718,2.737,2.013,2.013,0,0,0,2.737.717,53.176,53.176,0,0,1,7.117-3.978c2.437-1.314,4.883-2.612,7.349-3.871,5.029-2.569,10.145-4.964,15.359-7.131a2.067,2.067,0,0,0,1.4-2.461,2.012,2.012,0,0,0-2.46-1.4Z"/><path class="b" d="M261.582,203.254c5.15,2.14,10.2,4.5,15.172,7.035q3.5,1.786,6.963,3.659c2.447,1.315,5.217,2.414,7.431,4.094a2.011,2.011,0,0,0,2.736-.717,2.05,2.05,0,0,0-.717-2.737c-2.216-1.681-4.983-2.778-7.431-4.094-2.433-1.309-4.876-2.6-7.339-3.85q-7.735-3.928-15.751-7.248a2.014,2.014,0,0,0-2.461,1.4,2.053,2.053,0,0,0,1.4,2.461Z"/><path class="b" d="M291.655,218.211a6.308,6.308,0,0,1,2.783,2.59,24.269,24.269,0,0,1,2.161,4.7c1.118,3.221,1.807,6.613,2.605,9.923q.764,3.171,1.513,6.345a58.074,58.074,0,0,0,1.673,6.91,68.119,68.119,0,0,1,2.523,7.306c.616,2.5,4.474,1.44,3.857-1.063-.679-2.755-1.991-5.338-2.738-8.031-1.255-4.522-2.155-9.169-3.261-13.73a75.23,75.23,0,0,0-2.832-10.114,24.481,24.481,0,0,0-2.653-5.187,10.619,10.619,0,0,0-3.612-3.1c-2.239-1.277-4.257,2.178-2.019,3.454Z"/><path class="b" d="M188.134,214.757a12.378,12.378,0,0,0-2.65,1.854,15.333,15.333,0,0,0-2.649,4.193,38.583,38.583,0,0,0-2.543,7.306c-1.134,4.577-2.164,9.181-3.222,13.777q-2.943,12.784-5.875,25.572c-.606,2.636-1.216,5.272-1.883,7.893-.576,2.265-2.448,6.843.395,8.273,2.294,1.154,4.321-2.3,2.019-3.454.89.448.334.932.512.272.071-.263.08-.622.136-.892.13-.625.3-1.239.462-1.856.243-.912.474-1.827.7-2.744.551-2.243,1.073-4.493,1.59-6.744.988-4.305,1.935-8.619,2.921-12.923,1.867-8.149,3.744-16.3,5.694-24.429a50.7,50.7,0,0,1,1.849-6.4,21.767,21.767,0,0,1,2.08-4.129,6.109,6.109,0,0,1,2.484-2.119c2.236-1.275.223-4.732-2.019-3.454Z"/><path class="b" d="M282.881,276.511a62.1,62.1,0,0,0,4.2,9.82,28,28,0,0,0,6.37,7.649,2.048,2.048,0,0,0,2.828,0,2.018,2.018,0,0,0,0-2.829,24.641,24.641,0,0,1-5.744-6.839,55.907,55.907,0,0,1-3.8-8.865c-.786-2.44-4.649-1.4-3.857,1.064Z"/><path class="b" d="M328.59,242.506c-1.889,9.868-2.862,19.9-4.365,29.827a91.4,91.4,0,0,1-2.336,11.576c-1.31,4.571-2.337,9.428-5.991,12.769-2.04,1.866-4.975,3.726-7.827,3.692a9.052,9.052,0,0,1-6.726-3.933c-3.286-4.658-1.331-10.467.351-15.353,1.194-3.467,2.861-6.758,4.249-10.15,1.608-3.93,3.133-7.893,4.653-11.857,1.845-4.808,3.666-9.624,5.515-14.43.778-2.022,1.56-4.043,2.362-6.057q.5-1.264,1.021-2.524.105-.254.211-.507c.168-.4-.115.267.064-.151.138-.32.276-.641.419-.96a2.063,2.063,0,0,0-.718-2.736,2.015,2.015,0,0,0-2.736.718c-3.384,7.585-6.131,15.478-9.095,23.233-1.67,4.369-3.341,8.738-5.093,13.075-1.358,3.362-2.99,6.557-4.312,10.165-2.068,5.643-4.024,12.014-1.352,17.78,2.682,5.785,9.526,9.265,15.6,6.778a19.969,19.969,0,0,0,11.407-12.273,81.193,81.193,0,0,0,3.376-12.784c2.068-11.558,2.974-23.3,5.181-34.835.481-2.515-3.374-3.593-3.857-1.063Z"/><path class="b" d="M294.482,277.249c.338-.457.676-.915,1.015-1.37q.242-.324.485-.647l.243-.321c.037-.048.372-.48.08-.105.671-.863,1.36-1.712,2.091-2.525a26.7,26.7,0,0,1,2.323-2.3q.3-.264.617-.517s.4-.309.179-.143.145-.107.188-.137c.489-.358.994-.691,1.513-1a2,2,0,0,0-2.019-3.454c-4.284,2.587-7.242,6.548-10.169,10.506a2.006,2.006,0,0,0,.718,2.736,2.057,2.057,0,0,0,2.736-.717Z"/><path class="b" d="M320.19,234.448c.808-1.668,1.839-3.22,2.638-4.891a11.053,11.053,0,0,0,.9-4.627,15.8,15.8,0,0,1,3.179-8.648,63.528,63.528,0,0,1,7.617-8.5q.98-.958,1.976-1.9c.387-.364,1.033-1.135,1.633-1.043,1.249.191.19,2.07-.184,2.835-1.674,3.423-4.815,5.839-6.286,9.39a2.013,2.013,0,0,0,1.4,2.461,2.051,2.051,0,0,0,2.46-1.4,18.965,18.965,0,0,1,3-4.239,22.013,22.013,0,0,0,3.259-5.052c.764-1.789,1.428-3.788.358-5.61a4.849,4.849,0,0,0-5.567-2.153c-2.006.694-3.56,2.585-5.033,4.031-1.651,1.622-3.257,3.29-4.78,5.033a29.839,29.839,0,0,0-6.315,10.186c-.7,2.1-.5,4.1-.805,6.244a7.056,7.056,0,0,1-1.036,2.405c-.644,1.144-1.3,2.279-1.871,3.462-1.118,2.306,2.33,4.337,3.454,2.018Z"/><path class="b" d="M333.62,220.048c4.209-.937,8.5-1.464,12.711-2.4a18.367,18.367,0,0,0,4.321-1.947c1.665-.854,3.332-1.728,5.024-2.528a16.941,16.941,0,0,1,2.539-.989,6.2,6.2,0,0,1,2.342.049,8.612,8.612,0,0,0,2.07-.545,7.768,7.768,0,0,1,2.105-.056c2.392.2,2.638,1.668,1.9,3.644a15.1,15.1,0,0,1-4.1,5.668,65.14,65.14,0,0,1-7.509,5.721,34.467,34.467,0,0,1-9.059,4.472c-1.947.584-3.913,1.105-5.851,1.719a26.137,26.137,0,0,0-5.493,2.129,13.4,13.4,0,0,0-6.031,7.523c-.794,2.455,3.066,3.507,3.857,1.063a8.523,8.523,0,0,1,3.227-4.46,20.556,20.556,0,0,1,6.109-2.587c2.429-.748,4.93-1.317,7.306-2.224a41.15,41.15,0,0,0,6.561-3.309,62.41,62.41,0,0,0,6.021-4.289,40.2,40.2,0,0,0,4.621-3.84c2.4-2.528,4.989-6.177,4.705-9.848-.4-5.209-7.183-6.781-11.179-4.5l1.009-.273a19.779,19.779,0,0,0-2.14-.232,9.934,9.934,0,0,0-2.543.653,40.315,40.315,0,0,0-4.663,2.155c-2.239,1.161-4.472,2.642-6.965,3.128-3.98.774-8,1.37-11.959,2.251-2.512.559-1.449,4.416,1.063,3.857Z"/><path class="b" d="M341.194,222.49c-.272.044-.545.082-.817.125-.319.049.3-.037-.019,0l-.461.058c-.525.065-1.051.124-1.576.188-1.225.146-2.453.3-3.662.546a13.688,13.688,0,0,0-6.4,3.043,2.012,2.012,0,0,0,0,2.829,2.048,2.048,0,0,0,2.828,0c.095-.084.191-.166.288-.247s.208-.15.039-.031c.226-.158.454-.313.691-.454.209-.125.422-.241.639-.35.107-.054.221-.1.327-.157.271-.145-.266.1.021-.012a17.309,17.309,0,0,1,2.989-.835c.488-.092.978-.165,1.469-.238.322-.047-.3.036.024,0,.124-.014.247-.031.371-.046.279-.035.557-.068.836-.1,1.16-.136,2.32-.273,3.472-.461a2.008,2.008,0,0,0,1.4-2.461,2.057,2.057,0,0,0-2.46-1.4Z"/><path class="b" d="M357.99,211.038q-.543.553-1.134,1.053c-.195.165-.394.327-.595.484.224-.176.045-.037-.082.057-.094.07-.189.14-.285.209a31.03,31.03,0,0,1-2.919,1.844q-1.457.816-2.979,1.5c-.235.107-.472.208-.709.313s.29-.117-.064.026l-.3.124q-.721.288-1.455.542a2,2,0,0,0,1.063,3.858c4.407-1.531,8.99-3.824,12.291-7.186a2,2,0,1,0-2.828-2.829Z"/><path class="b" d="M361.772,213.831a8.253,8.253,0,0,1-1.049,1.041c-.128.109-.261.212-.39.32-.349.3.363-.267-.017.014-.268.2-.536.4-.809.586-1.221.851-2.5,1.626-3.785,2.367q-1.863,1.068-3.782,2.035c-.5.254-1.011.5-1.523.739-.188.087-.378.169-.566.255-.379.174.45-.176.149-.062-.081.031-.162.066-.244.1a2.047,2.047,0,0,0-1.4,2.46,2.021,2.021,0,0,0,2.46,1.4,50.54,50.54,0,0,0,6.921-3.467c1.332-.765,2.648-1.566,3.905-2.452a14.567,14.567,0,0,0,2.955-2.5,2.059,2.059,0,0,0,0-2.829,2.017,2.017,0,0,0-2.829,0Z"/><path class="b" d="M169.707,283.625a18.089,18.089,0,0,0,5.088,1.024c2.581.329,5.172.578,7.764.809,4.533.4,9.125.9,13.682.915,2.574.008,2.577-3.992,0-4-4.368-.015-8.768-.484-13.114-.865-2.559-.224-5.117-.467-7.667-.777-1.007-.122-1.436-.168-2.556-.362-.311-.054-.622-.109-.929-.181-.237-.056-1.029-.364-.249-.017a2.063,2.063,0,0,0-2.737.718,2.015,2.015,0,0,0,.718,2.736Z"/><path class="b" d="M175.168,283.091c-.706,8.239-1.312,16.5-1.725,24.758-.08,1.6-.2,3.207-.131,4.8.1,2.565,4.1,2.578,4,0a103.274,103.274,0,0,1,.473-10.68q.459-7.158,1.019-14.31c.117-1.524.233-3.049.364-4.572.22-2.564-3.782-2.55-4,0Z"/><path class="b" d="M172.219,274.707c6.841.673,13.718,1.54,20.591,1.768,2.575.085,2.572-3.915,0-4-6.873-.228-13.75-1.1-20.591-1.768a2.014,2.014,0,0,0-2,2,2.043,2.043,0,0,0,2,2Z"/><path class="e" d="M228,215.793c-4.086-5.572-6.268-9.546-9.7-15.125a24.733,24.733,0,0,1,5.035-6.8,50.07,50.07,0,0,0,14.449,10.07c.3.135.633.3.729.615a1.155,1.155,0,0,1-.167.816C238.167,205.754,229.37,214.112,228,215.793Z"/><path class="e" d="M251.63,215.793c4.086-5.572,6.269-9.546,9.7-15.125a24.713,24.713,0,0,0-5.035-6.8,50.07,50.07,0,0,1-14.449,10.07c-.3.135-.632.3-.729.615a1.161,1.161,0,0,0,.167.816C241.467,205.754,250.265,214.112,251.63,215.793Z"/><path class="b" d="M229.731,214.783c-3.542-4.848-6.56-10.012-9.7-15.124v2.019a23.779,23.779,0,0,1,4.723-6.4h-2.829a52.234,52.234,0,0,0,7.445,6.17q1.871,1.284,3.848,2.4.96.542,1.945,1.038.563.283,1.132.55c.161.076.322.15.484.224q.452.262.011-.1l-.273-1.009c-.01-.134.6-.7.275-.423-.107.092-.2.214-.3.316-.348.361-.705.712-1.061,1.065-1.072,1.062-2.152,2.115-3.229,3.172a77.039,77.039,0,0,0-5.617,5.7,2.056,2.056,0,0,0,0,2.828,2.016,2.016,0,0,0,2.829,0,108.778,108.778,0,0,1,7.886-7.925,16.475,16.475,0,0,0,2.766-2.889,2.893,2.893,0,0,0-1.269-4.185c-1.523-.779-3.057-1.5-4.532-2.373a47.756,47.756,0,0,1-9.512-7.384,2.037,2.037,0,0,0-2.829,0,25.988,25.988,0,0,0-4.475,5.639c-.725,1.215-1.53,2.365-.766,3.761.584,1.067,1.273,2.091,1.9,3.133,2.431,4.031,4.909,8.015,7.687,11.818a2.061,2.061,0,0,0,2.737.718A2.016,2.016,0,0,0,229.731,214.783Z"/><path class="b" d="M253.357,216.8c2.778-3.8,5.256-7.788,7.688-11.818.595-.987,1.221-1.961,1.795-2.96.826-1.435.193-2.485-.568-3.777a26.05,26.05,0,0,0-4.567-5.8,2.034,2.034,0,0,0-2.828,0,47.5,47.5,0,0,1-8.226,6.594,48.815,48.815,0,0,1-4.526,2.551c-1.573.777-3.446,1.6-2.962,3.761.315,1.408,1.619,2.4,2.6,3.366,1.512,1.492,3.034,2.973,4.546,4.466a55.921,55.921,0,0,1,3.909,4.018,2.014,2.014,0,0,0,2.828,0,2.044,2.044,0,0,0,0-2.828,76.842,76.842,0,0,0-5.617-5.7c-1.055-1.036-2.114-2.068-3.165-3.109-.365-.361-.73-.721-1.087-1.09-.105-.108-.2-.228-.315-.33-.315-.289.264.261.253.4l-.273,1.009c-.293.244-.29.278.012.1l.322-.148c.379-.179.757-.358,1.131-.545q.985-.49,1.946-1.028,2.061-1.152,4.009-2.492a52.3,52.3,0,0,0,7.445-6.17h-2.828a23.754,23.754,0,0,1,4.722,6.4v-2.019c-3.136,5.112-6.154,10.276-9.7,15.124a2.014,2.014,0,0,0,.718,2.737A2.046,2.046,0,0,0,253.357,216.8Z"/><path class="b" d="M237.826,205.2c0,4.335-.034,8.671-.056,13.007q-.065,12.534-.136,25.069-.081,14.619-.164,29.239-.072,12.759-.142,25.517c-.025,4.634-.057,9.268-.069,13.9,0,.177,0,.355,0,.532,0,2.574,4,2.578,4,0,0-3.959.035-7.918.056-11.877q.066-12.243.136-24.487.083-14.6.164-29.205.073-13.014.142-26.03c.026-4.988.058-9.975.069-14.963,0-.235,0-.469,0-.7,0-2.574-4-2.578-4,0Z"/><path class="b" d="M286.811,229.385c-.656,9.826-1.879,19.624-2.749,29.434-.623,7.02-1.179,14.047-1.606,21.083-.243,4.01-.1,8.059-.1,12.076q0,10.326,0,20.653c0,2.574,4,2.578,4,0,0-10.22-.121-20.448,0-30.667.04-3.343.393-6.711.637-10.045q.39-5.3.85-10.6c.532-6.164,1.124-12.323,1.729-18.481.44-4.479.939-8.96,1.239-13.452.172-2.57-3.829-2.56-4,0Z"/><path class="b" d="M189.966,229.385c.657,9.826,1.879,19.624,2.749,29.434.623,7.02,1.179,14.047,1.606,21.083.243,4.01.1,8.059.1,12.076q0,10.326,0,20.653c0,2.574,4,2.578,4,0,0-10.22.121-20.448,0-30.667-.04-3.343-.393-6.711-.637-10.045q-.39-5.3-.85-10.6c-.532-6.164-1.124-12.323-1.729-18.481-.44-4.479-.939-8.96-1.239-13.452-.171-2.555-4.172-2.574-4,0Z"/><path class="a" d="M276.4,241.607H260.171c0,1.176.026,4.28.026,5.7,2.708,0,14.163.026,16.2.026C276.4,245.37,276.378,241.842,276.4,241.607Z"/><path class="b" d="M276.4,239.607H260.171a2.029,2.029,0,0,0-2,2c0,1.9.025,3.8.026,5.7a2.03,2.03,0,0,0,2,2c5.4,0,10.8.026,16.2.026a2.028,2.028,0,0,0,2-2c0-1.9-.106-3.825,0-5.723a2,2,0,1,0-4,0c-.106,1.9,0,3.823,0,5.723l2-2c-5.4,0-10.8-.026-16.2-.026l2,2c0-1.9-.025-3.8-.026-5.7l-2,2H276.4C278.972,243.607,278.976,239.607,276.4,239.607Z"/><path class="f" d="M205.643,126.175a36.922,36.922,0,0,1,22.3-17.137c14.286-3.752,32.679-2.917,41.88,10.306a26.915,26.915,0,0,1,3.133,24.949c.993,1.248.39,3.427-.941,4.336-1.786,1.219-5.476.233-7.318-.244-9.735-2.519-17.377-2.338-27.4-1.912a73.761,73.761,0,0,0-15.521,1.922c-2.408.627-14.927,4.575-13.377-1.616-10.534,1.041-5.239-16.247-2.818-20.493Z"/><path class="b" d="M252.431,123.857a27.338,27.338,0,0,1,3.5-.083c.645.027,1.287.083,1.929.152l.2.025c-.156-.022-.163-.022-.019,0s.273.041.409.064q.513.086,1.021.2c.608.131,1.21.29,1.8.48.293.094.582.2.871.307.606.22-.155-.077.182.07.155.068.308.138.46.212a12.388,12.388,0,0,1,1.557.9c-.01-.007.418.3.277.192s.265.222.257.214c.248.214.482.442.709.678a2,2,0,0,0,2.828-2.828c-3.981-4.138-10.524-5.05-15.993-4.573a2.053,2.053,0,0,0-2,2,2.015,2.015,0,0,0,2,2Z"/><path class="b" d="M207.068,144.811a2.667,2.667,0,0,1-.677-.12,3.254,3.254,0,0,1-.455-.155c-.124-.064-.691-.47-.448-.262-.125-.107-.588-.647-.424-.418a3.214,3.214,0,0,1-.56-1.082,10.759,10.759,0,0,1-.35-1.562,22.278,22.278,0,0,1,1-8.272,37.961,37.961,0,0,1,1.3-3.87,22.718,22.718,0,0,1,1.431-2.759,34.583,34.583,0,0,1,8.779-9.607c6.728-4.995,14.957-7.124,23.237-7.536,7.679-.382,15.706.842,22.173,5.243A25.107,25.107,0,0,1,272.1,140.336c-.566,2.507,3.29,3.578,3.857,1.064a29.273,29.273,0,0,0-8.827-28.088c-6.695-5.919-15.707-8.192-24.483-8.211-9.2-.019-18.879,1.972-26.6,7.159-6.766,4.547-12.208,11.049-14.547,18.911-1.774,5.966-3.3,16.959,5.564,17.64,2.567.2,2.554-3.8,0-4Z"/><path class="b" d="M209.057,147.777a56.453,56.453,0,0,1,10.3-5.088,55.139,55.139,0,0,1,14.952-2.933c9.075-.581,18.6-.609,27.479,1.651a35.812,35.812,0,0,1,4.008,1.274c.081.032.573.246.1.037.133.058.267.115.4.178.222.106.445.21.663.323a11.392,11.392,0,0,1,1.113.656c2.14,1.443,4.144-2.021,2.019-3.454a21.256,21.256,0,0,0-5.994-2.534,61.1,61.1,0,0,0-11.145-1.958,116.07,116.07,0,0,0-16.469-.289,64.615,64.615,0,0,0-16.744,2.707,59.668,59.668,0,0,0-12.695,5.976c-2.2,1.332-.19,4.793,2.019,3.454Z"/><path class="b" d="M206.262,147.883c.362,4.583,5.439,4.562,8.906,4.07,3.846-.545,7.513-1.879,11.342-2.518a122.6,122.6,0,0,1,19.755-1.215,73.216,73.216,0,0,1,18.4,2.222c2.574.654,5.952,1.474,8.363-.086,2.551-1.651,3.356-5.646,1.009-7.811-1.89-1.743-4.726,1.078-2.828,2.828a1.015,1.015,0,0,1-.12,1.423c-.517.557-1.511.439-2.194.393a48.6,48.6,0,0,1-6.614-1.428,76.633,76.633,0,0,0-16.44-1.539,148.489,148.489,0,0,0-17.26.909,107.619,107.619,0,0,0-11.184,2.342,22.8,22.8,0,0,1-5.126.739,3.934,3.934,0,0,1-1.946-.28c.171.073-.1-.074-.1-.1l.115.161c-.09-.167-.107-.18-.05-.041.129.1-.055-.438-.026-.066-.2-2.549-4.2-2.571-4,0Z"/><path class="b" d="M234.978,176.329a12.885,12.885,0,0,0,6.2,1.445,10.183,10.183,0,0,0,6.346-1.91,2,2,0,0,0,0-2.828,2.06,2.06,0,0,0-2.828,0c.684-.533-.075.02-.3.135-.171.09-.638.229-.028.033-.172.055-.338.13-.51.185-.154.05-1.413.272-1.426.326.014-.054.432-.049-.017,0-.14.014-.28.025-.42.034-.338.022-.676.031-1.014.029-.3,0-.606-.012-.908-.033-.139-.009-.277-.021-.416-.034-.079-.008-.158-.017-.236-.027-.156-.018-.1-.012.155.021a3.927,3.927,0,0,1-1.333-.3c-.186-.056-.368-.123-.552-.186-.465-.159.4.193-.024-.006-.228-.107-.453-.22-.677-.338a2,2,0,0,0-2.019,3.454Z"/><path class="b" d="M239.959,161.985a27.865,27.865,0,0,1,.66,3.019l-.071-.531a1.867,1.867,0,0,1,.011.416l.071-.531a1,1,0,0,1-.046.187l.2-.478a.71.71,0,0,1-.066.121l.313-.405a.605.605,0,0,1-.1.1l.405-.312a2.019,2.019,0,0,1-.239.126l.477-.2a1.709,1.709,0,0,1-.4.117l.532-.071a1.593,1.593,0,0,1-.378,0l.531.071c-.142-.019-.282-.054-.425-.073a2.244,2.244,0,0,0-1.541.2,2,2,0,0,0-.718,2.737,1.921,1.921,0,0,0,1.2.919c.364.049.718.141,1.09.157a3.561,3.561,0,0,0,1.658-.4,2.491,2.491,0,0,0,1.351-1.63,3.913,3.913,0,0,0-.014-1.706c-.165-.972-.39-1.936-.64-2.89a2,2,0,0,0-2.46-1.4,2.021,2.021,0,0,0-1.195.919,2.1,2.1,0,0,0-.2,1.541Z"/><path class="b" d="M224.431,153.315c-.505,1.638-.176,5.407,2.928,5.728,4.1-.024,4.321-4.581,2.94-6.724C229.168,150.565,225.843,149.835,224.431,153.315Z"/><path class="b" d="M257.285,153.315c.5,1.638.175,5.407-2.929,5.728-4.1-.025-4.321-4.582-2.94-6.724C252.547,150.565,255.872,149.835,257.285,153.315Z"/></svg>